<svg width="174" height="42" viewBox="0 0 174 42" fill="none" xmlns="http://www.w3.org/2000/svg">
<path d="M47.8397 29.1783C49.0111 29.1783 50.0907 28.9279 51.0783 28.427C52.0889 27.9262 52.9962 27.1863 53.8001 26.2074L57.6933 29.9979C56.5678 31.3866 55.0863 32.5021 53.2488 33.3445C51.4343 34.1868 49.5624 34.608 47.633 34.608C45.8185 34.608 44.1073 34.2893 42.4995 33.6518C40.9147 33.0144 39.548 32.1493 38.3996 31.0565C37.2512 29.9637 36.3439 28.6661 35.6778 27.1635C35.0117 25.661 34.6787 24.0446 34.6787 22.3144C34.6787 20.5842 35.0117 18.9678 35.6778 17.4652C36.3439 15.9399 37.2512 14.6309 38.3996 13.5381C39.571 12.4453 40.9491 11.5802 42.534 10.9428C44.1188 10.3053 45.8185 9.98662 47.633 9.98662C48.6207 9.98662 49.6083 10.1004 50.596 10.3281C51.5836 10.5558 52.5253 10.8745 53.4211 11.2843C54.3169 11.6713 55.1438 12.1608 55.9017 12.7527C56.6597 13.3218 57.3143 13.9593 57.8655 14.665L53.869 18.558C53.0192 17.5108 52.066 16.7253 51.0094 16.2017C49.9758 15.6553 48.8503 15.3821 47.633 15.3821C46.6683 15.3821 45.7611 15.5643 44.9112 15.9285C44.0843 16.27 43.3608 16.7481 42.7407 17.3628C42.1435 17.9775 41.6611 18.7174 41.2937 19.5825C40.9491 20.4248 40.7769 21.3354 40.7769 22.3144C40.7769 23.2933 40.9491 24.204 41.2937 25.0463C41.6611 25.8659 42.155 26.583 42.7751 27.1977C43.4183 27.8124 44.1647 28.3018 45.0146 28.6661C45.8874 29.0076 46.8291 29.1783 47.8397 29.1783Z" fill="white"/>
<path d="M57.3932 25.2512C57.3932 23.9535 57.6458 22.7356 58.1511 21.5973C58.6794 20.4362 59.38 19.4345 60.2528 18.5921C61.1485 17.7498 62.1936 17.0896 63.388 16.6115C64.6053 16.1107 65.9031 15.8602 67.2812 15.8602C68.6593 15.8602 69.9455 16.1107 71.1399 16.6115C72.3573 17.0896 73.4023 17.7498 74.2751 18.5921C75.1709 19.4345 75.8715 20.4362 76.3768 21.5973C76.9051 22.7356 77.1692 23.9535 77.1692 25.2512C77.1692 26.5488 76.9051 27.7782 76.3768 28.9393C75.8715 30.0776 75.1709 31.0679 74.2751 31.9102C73.4023 32.7526 72.3573 33.4128 71.1399 33.8909C69.9455 34.369 68.6593 34.608 67.2812 34.608C65.9031 34.608 64.6053 34.369 63.388 33.8909C62.1936 33.4128 61.1485 32.7526 60.2528 31.9102C59.38 31.0679 58.6794 30.0776 58.1511 28.9393C57.6458 27.7782 57.3932 26.5488 57.3932 25.2512ZM67.2812 29.8271C68.5215 29.8271 69.5666 29.3832 70.4164 28.4953C71.2892 27.6075 71.7256 26.5261 71.7256 25.2512C71.7256 23.9535 71.2892 22.8608 70.4164 21.9729C69.5666 21.085 68.5215 20.6411 67.2812 20.6411C66.0409 20.6411 64.9843 21.085 64.1115 21.9729C63.2617 22.8608 62.8367 23.9535 62.8367 25.2512C62.8367 26.5261 63.2617 27.6075 64.1115 28.4953C64.9843 29.3832 66.0409 29.8271 67.2812 29.8271Z" fill="white"/>
<path d="M93.0371 34.2665V32.5704C92.2766 33.2065 91.421 33.7012 90.4704 34.0545C89.5197 34.3843 88.5215 34.5492 87.4758 34.5492C86.1924 34.5492 84.9922 34.3136 83.8752 33.8425C82.7582 33.3478 81.7838 32.6882 80.952 31.8638C80.1439 31.0393 79.5023 30.0617 79.0269 28.931C78.5516 27.7767 78.3139 26.5518 78.3139 25.2562C78.3139 23.9606 78.5516 22.7474 79.0269 21.6167C79.5023 20.486 80.1439 19.5084 80.952 18.6839C81.7838 17.8594 82.7701 17.2116 83.9109 16.7405C85.0517 16.2458 86.2637 15.9985 87.5471 15.9985C88.5453 15.9985 89.5078 16.1516 90.4347 16.4578C91.3616 16.7641 92.2172 17.1999 93.0015 17.7652V9.53225L96.5664 8.75488V34.2665H93.0371ZM81.8076 25.2208C81.8076 26.9876 82.4017 28.4716 83.59 29.673C84.7784 30.8744 86.24 31.4751 87.9749 31.4751C88.9968 31.4751 89.9356 31.2866 90.7912 30.9097C91.6705 30.5328 92.4073 30.0028 93.0015 29.3197V21.1573C92.4073 20.4978 91.6705 19.9795 90.7912 19.6026C89.9118 19.2257 88.9731 19.0373 87.9749 19.0373C86.24 19.0373 84.7784 19.6262 83.59 20.804C82.4017 21.9818 81.8076 23.4541 81.8076 25.2208Z" fill="white"/>
<path d="M101.501 13.3837C100.907 13.3837 100.396 13.1717 99.9681 12.7477C99.5403 12.3001 99.3264 11.7819 99.3264 11.193C99.3264 10.6041 99.5403 10.0976 99.9681 9.67358C100.396 9.22601 100.907 9.00223 101.501 9.00223C102.095 9.00223 102.606 9.22601 103.034 9.67358C103.486 10.0976 103.711 10.6041 103.711 11.193C103.711 11.7819 103.486 12.3001 103.034 12.7477C102.606 13.1717 102.095 13.3837 101.501 13.3837ZM103.283 16.2812V34.2665H99.7186V16.2812H103.283Z" fill="white"/>
<path d="M120.316 34.2665V32.5704C119.555 33.2065 118.7 33.7012 117.749 34.0545C116.798 34.3843 115.8 34.5492 114.754 34.5492C113.471 34.5492 112.271 34.3136 111.154 33.8425C110.037 33.3478 109.062 32.6882 108.231 31.8638C107.423 31.0393 106.781 30.0617 106.306 28.931C105.83 27.7767 105.593 26.5518 105.593 25.2562C105.593 23.9606 105.83 22.7474 106.306 21.6167C106.781 20.486 107.423 19.5084 108.231 18.6839C109.062 17.8594 110.049 17.2116 111.19 16.7405C112.33 16.2458 113.542 15.9985 114.826 15.9985C115.824 15.9985 116.786 16.1516 117.713 16.4578C118.64 16.7641 119.496 17.1999 120.28 17.7652V9.53225L123.845 8.75488V34.2665H120.316ZM109.086 25.2208C109.086 26.9876 109.68 28.4716 110.869 29.673C112.057 30.8744 113.519 31.4751 115.254 31.4751C116.276 31.4751 117.214 31.2866 118.07 30.9097C118.949 30.5328 119.686 30.0028 120.28 29.3197V21.1573C119.686 20.4978 118.949 19.9795 118.07 19.6026C117.191 19.2257 116.252 19.0373 115.254 19.0373C113.519 19.0373 112.057 19.6262 110.869 20.804C109.68 21.9818 109.086 23.4541 109.086 25.2208Z" fill="white"/>
<path d="M132.737 34.5845C130.764 34.5845 129.16 34.0781 127.924 33.0651C126.688 32.0522 126.07 30.733 126.07 29.1076C126.07 27.4116 126.724 26.0806 128.031 25.1148C129.338 24.1255 131.133 23.6308 133.414 23.6308C134.293 23.6308 135.149 23.725 135.981 23.9135C136.813 24.0783 137.609 24.3139 138.369 24.6201V22.7121C138.369 21.44 137.989 20.486 137.229 19.85C136.468 19.2139 135.375 18.8959 133.949 18.8959C133.117 18.8959 132.25 19.0255 131.346 19.2846C130.443 19.5202 129.433 19.8971 128.316 20.4153L126.997 17.7652C128.352 17.1292 129.635 16.6698 130.847 16.3872C132.059 16.0809 133.26 15.9278 134.448 15.9278C136.801 15.9278 138.619 16.4932 139.902 17.6239C141.209 18.731 141.863 20.3093 141.863 22.3587V34.2665H138.369V32.7118C137.561 33.3478 136.694 33.8189 135.767 34.1252C134.84 34.4314 133.83 34.5845 132.737 34.5845ZM129.493 29.037C129.493 29.9086 129.861 30.6153 130.598 31.1571C131.358 31.6989 132.345 31.9698 133.557 31.9698C134.507 31.9698 135.387 31.8284 136.195 31.5457C137.003 31.2631 137.728 30.839 138.369 30.2737V27.1642C137.68 26.7873 136.955 26.5164 136.195 26.3515C135.434 26.1631 134.602 26.0689 133.699 26.0689C132.416 26.0689 131.394 26.3398 130.633 26.8816C129.873 27.4234 129.493 28.1418 129.493 29.037Z" fill="white"/>
<path d="M153.564 31.4751C154.467 31.4751 155.323 31.2984 156.131 30.945C156.939 30.5681 157.711 30.0146 158.448 29.2843L160.587 31.5811C159.636 32.5233 158.543 33.2654 157.307 33.8072C156.071 34.3254 154.776 34.5845 153.421 34.5845C152.114 34.5845 150.89 34.349 149.75 33.8778C148.609 33.3831 147.622 32.7236 146.791 31.8991C145.959 31.0746 145.293 30.097 144.794 28.9663C144.319 27.812 144.081 26.5753 144.081 25.2562C144.081 23.9606 144.319 22.7474 144.794 21.6167C145.293 20.4624 145.959 19.4731 146.791 18.6486C147.622 17.8006 148.609 17.141 149.75 16.6698C150.89 16.1752 152.114 15.9278 153.421 15.9278C154.776 15.9278 156.095 16.1987 157.379 16.7405C158.662 17.2588 159.779 17.989 160.73 18.9313L158.484 21.334C157.794 20.6038 157.022 20.0502 156.166 19.6733C155.311 19.2728 154.42 19.0726 153.493 19.0726C151.853 19.0726 150.463 19.6733 149.322 20.8747C148.181 22.0761 147.611 23.5365 147.611 25.2562C147.611 27.0229 148.181 28.507 149.322 29.7083C150.486 30.8862 151.9 31.4751 153.564 31.4751Z" fill="white"/>
<path d="M165.123 29.8143V19.2493H161.273V16.2812H165.123V11.6877L168.653 10.8396V16.2812H174V19.2493H168.653V29.0016C168.653 29.9203 168.855 30.5681 169.259 30.945C169.686 31.322 170.376 31.5104 171.326 31.5104C171.825 31.5104 172.265 31.4868 172.645 31.4397C173.049 31.3691 173.477 31.2513 173.929 31.0864V34.0545C173.453 34.2194 172.895 34.349 172.253 34.4432C171.635 34.5374 171.065 34.5845 170.542 34.5845C168.783 34.5845 167.441 34.1841 166.514 33.3831C165.587 32.5587 165.123 31.3691 165.123 29.8143Z" fill="white"/>
<path fill-rule="evenodd" clip-rule="evenodd" d="M12.6207 0.541717L26.1529 7.86358C26.375 7.9646 26.5872 8.07117 26.7877 8.18299C28.1745 8.99579 28.687 9.76372 28.4387 10.3775L25.7489 25.3551C25.5829 25.6263 25.1613 25.8954 23.9239 26.3375C23.2036 26.5949 22.6038 26.7908 22.0073 26.8661C20.1669 27.0984 18.8262 26.5304 17.8868 25.9039L17.2809 29.2775C18.2203 29.904 19.561 30.472 21.4014 30.2397C21.9979 30.1644 22.5873 30.0262 23.3076 29.7689C24.3982 29.3792 24.9119 29.1937 25.1357 28.7696L24.1101 34.4804C23.93 34.7409 23.4935 35.006 22.3058 35.4305C21.5852 35.6881 20.9852 35.8841 20.3883 35.9595C18.5471 36.1919 17.2059 35.6236 16.2661 34.9966L16.2501 35.0853L16.234 35.0765L15.0646 41.6119L9.60654 31.4765L9.2766 31.2973L0.833376 26.7565L5.07645 3.12998L20.9991 11.8687C21.8835 12.4061 23.6255 12.7927 25.1171 12.3815C25.5735 12.2556 26.6223 11.924 26.6223 11.924L18.6504 7.59368L17.6113 7.03484L17.6393 7.02505L12.004 3.97592L12.6207 0.541717ZM19.3046 18.0483C19.4062 19.1718 18.8103 20.1454 17.9735 20.223C17.1367 20.3006 16.376 19.4528 16.2743 18.3293C16.1727 17.2058 16.7687 16.2322 17.6055 16.1546C18.4423 16.077 19.203 16.9249 19.3046 18.0483Z" fill="white"/>
</svg>
