<svg width="173" height="42" viewBox="0 0 173 42" fill="none" xmlns="http://www.w3.org/2000/svg">
<path d="M47.4351 29.0316C48.5962 29.0316 49.6662 28.7812 50.6451 28.2803C51.6469 27.7795 52.5461 27.0396 53.3429 26.0607L57.2017 29.8512C56.0862 31.2399 54.6178 32.3554 52.7965 33.1978C50.998 34.0401 49.1426 34.4613 47.2303 34.4613C45.4317 34.4613 43.7357 34.1426 42.1421 33.5051C40.5712 32.8677 39.2166 32.0026 38.0783 30.9098C36.94 29.817 36.0408 28.5194 35.3806 27.0168C34.7204 25.5143 34.3903 23.8979 34.3903 22.1677C34.3903 20.4375 34.7204 18.8211 35.3806 17.3185C36.0408 15.7932 36.94 14.4842 38.0783 13.3914C39.2394 12.2986 40.6054 11.4335 42.1762 10.7961C43.7471 10.1586 45.4317 9.83992 47.2303 9.83992C48.2092 9.83992 49.1881 9.95375 50.1671 10.1814C51.146 10.4091 52.0794 10.7278 52.9673 11.1376C53.8551 11.5246 54.6747 12.0141 55.426 12.606C56.1773 13.1751 56.8261 13.8126 57.3725 14.5183L53.4112 18.4113C52.5689 17.3641 51.6241 16.5786 50.5769 16.055C49.5524 15.5086 48.4369 15.2354 47.2303 15.2354C46.2741 15.2354 45.3748 15.4176 44.5325 15.7818C43.7129 16.1233 42.9958 16.6014 42.3811 17.2161C41.7892 17.8308 41.3111 18.5707 40.9469 19.4358C40.6054 20.2781 40.4346 21.1887 40.4346 22.1677C40.4346 23.1466 40.6054 24.0573 40.9469 24.8996C41.3111 25.7192 41.8006 26.4363 42.4153 27.051C43.0527 27.6657 43.7926 28.1551 44.6349 28.5194C45.5 28.8609 46.4334 29.0316 47.4351 29.0316Z" fill="#424242"/>
<path d="M56.9043 25.1045C56.9043 23.8068 57.1547 22.5889 57.6556 21.4506C58.1792 20.2895 58.8735 19.2878 59.7386 18.4454C60.6265 17.6031 61.6624 16.9429 62.8462 16.4648C64.0528 15.964 65.3391 15.7135 66.705 15.7135C68.071 15.7135 69.3459 15.964 70.5297 16.4648C71.7363 16.9429 72.7721 17.6031 73.6372 18.4454C74.5251 19.2878 75.2195 20.2895 75.7203 21.4506C76.2439 22.5889 76.5058 23.8068 76.5058 25.1045C76.5058 26.4022 76.2439 27.6315 75.7203 28.7926C75.2195 29.9309 74.5251 30.9212 73.6372 31.7635C72.7721 32.6059 71.7363 33.2661 70.5297 33.7442C69.3459 34.2223 68.071 34.4613 66.705 34.4613C65.3391 34.4613 64.0528 34.2223 62.8462 33.7442C61.6624 33.2661 60.6265 32.6059 59.7386 31.7635C58.8735 30.9212 58.1792 29.9309 57.6556 28.7926C57.1547 27.6315 56.9043 26.4022 56.9043 25.1045ZM66.705 29.6804C67.9344 29.6804 68.9702 29.2365 69.8126 28.3486C70.6777 27.4608 71.1102 26.3794 71.1102 25.1045C71.1102 23.8068 70.6777 22.7141 69.8126 21.8262C68.9702 20.9383 67.9344 20.4944 66.705 20.4944C65.4757 20.4944 64.4284 20.9383 63.5633 21.8262C62.721 22.7141 62.2998 23.8068 62.2998 25.1045C62.2998 26.3794 62.721 27.4608 63.5633 28.3486C64.4284 29.2365 65.4757 29.6804 66.705 29.6804Z" fill="#424242"/>
<path d="M92.2336 34.1198V32.4237C91.4798 33.0598 90.6318 33.5545 89.6895 33.9078C88.7473 34.2376 87.7579 34.4025 86.7214 34.4025C85.4494 34.4025 84.2598 34.1669 83.1526 33.6958C82.0455 33.2011 81.0796 32.5415 80.2552 31.7171C79.4543 30.8926 78.8182 29.915 78.3471 28.7843C77.876 27.63 77.6404 26.4051 77.6404 25.1095C77.6404 23.8139 77.876 22.6007 78.3471 21.47C78.8182 20.3393 79.4543 19.3617 80.2552 18.5372C81.0796 17.7127 82.0572 17.0649 83.188 16.5938C84.3187 16.0991 85.52 15.8518 86.7921 15.8518C87.7815 15.8518 88.7355 16.0049 89.6542 16.3111C90.5729 16.6174 91.4209 17.0532 92.1983 17.6185V9.38555L95.7318 8.60818V34.1198H92.2336ZM81.1032 25.0741C81.1032 26.8409 81.6921 28.3249 82.8699 29.5263C84.0478 30.7277 85.4965 31.3284 87.2161 31.3284C88.229 31.3284 89.1595 31.1399 90.0075 30.763C90.8791 30.3861 91.6094 29.8561 92.1983 29.173V21.0107C91.6094 20.3511 90.8791 19.8328 90.0075 19.4559C89.1359 19.079 88.2055 18.8906 87.2161 18.8906C85.4965 18.8906 84.0478 19.4795 82.8699 20.6573C81.6921 21.8351 81.1032 23.3074 81.1032 25.0741Z" fill="#424242"/>
<path d="M100.623 13.237C100.034 13.237 99.5275 13.025 99.1035 12.601C98.6794 12.1534 98.4674 11.6352 98.4674 11.0463C98.4674 10.4574 98.6794 9.9509 99.1035 9.52689C99.5275 9.07931 100.034 8.85553 100.623 8.85553C101.212 8.85553 101.718 9.07931 102.142 9.52689C102.59 9.9509 102.814 10.4574 102.814 11.0463C102.814 11.6352 102.59 12.1534 102.142 12.601C101.718 13.025 101.212 13.237 100.623 13.237ZM102.39 16.1345V34.1198H98.8561V16.1345H102.39Z" fill="#424242"/>
<path d="M119.272 34.1198V32.4237C118.518 33.0598 117.67 33.5545 116.727 33.9078C115.785 34.2376 114.796 34.4025 113.759 34.4025C112.487 34.4025 111.298 34.1669 110.191 33.6958C109.083 33.2011 108.118 32.5415 107.293 31.7171C106.492 30.8926 105.856 29.915 105.385 28.7843C104.914 27.63 104.678 26.4051 104.678 25.1095C104.678 23.8139 104.914 22.6007 105.385 21.47C105.856 20.3393 106.492 19.3617 107.293 18.5372C108.118 17.7127 109.095 17.0649 110.226 16.5938C111.357 16.0991 112.558 15.8518 113.83 15.8518C114.819 15.8518 115.773 16.0049 116.692 16.3111C117.611 16.6174 118.459 17.0532 119.236 17.6185V9.38555L122.77 8.60818V34.1198H119.272ZM108.141 25.0741C108.141 26.8409 108.73 28.3249 109.908 29.5263C111.086 30.7277 112.534 31.3284 114.254 31.3284C115.267 31.3284 116.197 31.1399 117.045 30.763C117.917 30.3861 118.647 29.8561 119.236 29.173V21.0107C118.647 20.3511 117.917 19.8328 117.045 19.4559C116.174 19.079 115.243 18.8906 114.254 18.8906C112.534 18.8906 111.086 19.4795 109.908 20.6573C108.73 21.8351 108.141 23.3074 108.141 25.0741Z" fill="#424242"/>
<path d="M131.583 34.4378C129.628 34.4378 128.038 33.9314 126.813 32.9184C125.588 31.9055 124.975 30.5863 124.975 28.9609C124.975 27.2649 125.623 25.9339 126.919 24.9681C128.214 23.9788 129.993 23.4841 132.254 23.4841C133.126 23.4841 133.974 23.5783 134.798 23.7668C135.623 23.9316 136.412 24.1672 137.166 24.4734V22.5654C137.166 21.2933 136.789 20.3393 136.035 19.7033C135.281 19.0672 134.198 18.7492 132.784 18.7492C131.96 18.7492 131.1 18.8788 130.205 19.1379C129.31 19.3735 128.309 19.7504 127.201 20.2686L125.894 17.6185C127.237 16.9825 128.509 16.5231 129.71 16.2405C130.912 15.9342 132.101 15.7811 133.279 15.7811C135.611 15.7811 137.413 16.3465 138.685 17.4772C139.981 18.5843 140.629 20.1626 140.629 22.212V34.1198H137.166V32.5651C136.365 33.2011 135.505 33.6722 134.586 33.9785C133.668 34.2847 132.666 34.4378 131.583 34.4378ZM128.367 28.8903C128.367 29.7619 128.733 30.4686 129.463 31.0104C130.217 31.5522 131.194 31.8231 132.396 31.8231C133.338 31.8231 134.209 31.6817 135.01 31.399C135.811 31.1164 136.53 30.6923 137.166 30.127V27.0175C136.483 26.6406 135.764 26.3697 135.01 26.2048C134.257 26.0164 133.432 25.9222 132.537 25.9222C131.265 25.9222 130.252 26.1931 129.498 26.7349C128.744 27.2767 128.367 27.9951 128.367 28.8903Z" fill="#424242"/>
<path d="M152.226 31.3284C153.121 31.3284 153.97 31.1517 154.77 30.7983C155.571 30.4214 156.337 29.8679 157.067 29.1376L159.187 31.4344C158.245 32.3766 157.161 33.1187 155.936 33.6605C154.712 34.1787 153.428 34.4378 152.085 34.4378C150.789 34.4378 149.576 34.2023 148.446 33.7311C147.315 33.2364 146.337 32.5769 145.513 31.7524C144.688 30.9279 144.029 29.9503 143.534 28.8196C143.063 27.6653 142.827 26.4286 142.827 25.1095C142.827 23.8139 143.063 22.6007 143.534 21.47C144.029 20.3157 144.688 19.3264 145.513 18.5019C146.337 17.6539 147.315 16.9943 148.446 16.5231C149.576 16.0285 150.789 15.7811 152.085 15.7811C153.428 15.7811 154.735 16.052 156.007 16.5938C157.279 17.1121 158.386 17.8423 159.329 18.7846L157.103 21.1873C156.419 20.4571 155.654 19.9035 154.806 19.5266C153.958 19.1261 153.074 18.9259 152.156 18.9259C150.53 18.9259 149.152 19.5266 148.022 20.728C146.891 21.9294 146.325 23.3899 146.325 25.1095C146.325 26.8762 146.891 28.3603 148.022 29.5616C149.176 30.7395 150.577 31.3284 152.226 31.3284Z" fill="#424242"/>
<path d="M163.684 29.6676V19.1026H159.867V16.1345H163.684V11.541L167.182 10.6929V16.1345H172.482V19.1026H167.182V28.8549C167.182 29.7736 167.382 30.4214 167.782 30.7983C168.206 31.1753 168.89 31.3637 169.832 31.3637C170.327 31.3637 170.762 31.3401 171.139 31.293C171.54 31.2224 171.964 31.1046 172.411 30.9397V33.9078C171.94 34.0727 171.387 34.2023 170.751 34.2965C170.138 34.3907 169.573 34.4378 169.054 34.4378C167.311 34.4378 165.98 34.0374 165.062 33.2364C164.143 32.412 163.684 31.2224 163.684 29.6676Z" fill="#424242"/>
<path fill-rule="evenodd" clip-rule="evenodd" d="M12.4805 0.409562L25.9418 7.75471C26.1627 7.85613 26.3738 7.96308 26.5732 8.07524C27.9529 8.89035 28.4639 9.65862 28.2187 10.2711L25.61 25.0659C25.5059 25.3966 25.1924 25.6764 23.7309 26.1985C23.0167 26.4537 22.4219 26.6478 21.83 26.7216C20.004 26.9491 18.6721 26.3792 17.7383 25.7519L17.1449 29.1172C18.0787 29.7446 19.4106 30.3145 21.2366 30.0869C21.8285 30.0131 22.4131 29.8766 23.1274 29.6215C24.3588 29.1815 24.8485 29.004 25.0154 28.4376L24.0069 34.157C23.9029 34.4877 23.5893 34.7675 22.1279 35.2897C21.4137 35.5448 20.8189 35.739 20.227 35.8127C18.401 36.0403 17.0691 35.4704 16.1353 34.843L16.1173 34.9449L14.9676 41.4652L9.54087 31.3384L9.20984 31.1569L0.825439 26.6042L4.99658 2.94852L6.17693 3.59751L20.8367 11.7197C21.7137 12.2574 23.4395 12.6468 24.9156 12.2403C25.3672 12.116 26.405 11.7878 26.405 11.7878L18.5009 7.45324L17.479 6.89834L17.4817 6.89738L11.8759 3.83854L12.4805 0.409562ZM19.1476 17.9049C19.2507 19.0301 18.6638 20.0038 17.8368 20.0796C17.0098 20.1553 16.2558 19.3045 16.1527 18.1793C16.0496 17.054 16.6364 16.0803 17.4634 16.0045C18.2905 15.9288 19.0445 16.7796 19.1476 17.9049Z" fill="url(#paint0_linear)"/>
<defs>
<linearGradient id="paint0_linear" x1="17.5522" y1="1.30384" x2="10.9032" y2="39.012" gradientUnits="userSpaceOnUse">
<stop stop-color="#00C2FF"/>
<stop offset="1" stop-color="#8C1AFF"/>
</linearGradient>
</defs>
</svg>
