<svg width="42" height="42" xmlns="http://www.w3.org/2000/svg" fill="none">

 <g>
  <title>Layer 1</title>
  <path id="svg_9" fill="white" d="m18.6207,0.54172l13.5322,7.32186c0.2221,0.10102 0.4343,0.20759 0.6348,0.31941c1.3868,0.8128 1.8993,1.58073 1.651,2.19451l-2.6898,14.9776c-0.166,0.2712 -0.5876,0.5403 -1.825,0.9824c-0.7203,0.2574 -1.3201,0.4533 -1.9166,0.5286c-1.8404,0.2323 -3.1811,-0.3357 -4.1205,-0.9622l-0.6059,3.3736c0.9394,0.6265 2.2801,1.1945 4.1205,0.9622c0.5965,-0.0753 1.1859,-0.2135 1.9062,-0.4708c1.0906,-0.3897 1.6043,-0.5752 1.8281,-0.9993l-1.0256,5.7108c-0.1801,0.2605 -0.6166,0.5256 -1.8043,0.9501c-0.7206,0.2576 -1.3206,0.4536 -1.9175,0.529c-1.8412,0.2324 -3.1824,-0.3359 -4.1222,-0.9629l-0.016,0.0887l-0.0161,-0.0088l-1.1694,6.5354l-5.45806,-10.1354l-0.32994,-0.1792l-8.44322,-4.5408l4.24307,-23.62652l15.92265,8.73872c0.8844,0.5374 2.6264,0.924 4.118,0.5128c0.4564,-0.1259 1.5052,-0.4575 1.5052,-0.4575l-7.9719,-4.33032l-1.0391,-0.55884l0.028,-0.00979l-5.6353,-3.04913l0.6167,-3.4342zm6.6839,17.50658c0.1016,1.1235 -0.4943,2.0971 -1.3311,2.1747c-0.8368,0.0776 -1.5975,-0.7702 -1.6992,-1.8937c-0.1016,-1.1235 0.4944,-2.0971 1.3312,-2.1747c0.8368,-0.0776 1.5975,0.7703 1.6991,1.8937z" clip-rule="evenodd" fill-rule="evenodd"/>
 </g>
</svg>