<svg width="42" height="42" xmlns="http://www.w3.org/2000/svg" fill="none">
 <defs>
  <linearGradient y2="0.94025" x2="0.3671" y1="0.02178" x1="0.6093" id="paint0_linear">
   <stop stop-color="#00C2FF"/>
   <stop stop-color="#8C1AFF" offset="1"/>
  </linearGradient>
 </defs>
 <g>
  <title>Layer 1</title>
  <path id="svg_9" fill="url(#paint0_linear)" d="m18.4805,1.40956l13.4613,7.34515c0.2209,0.10142 0.432,0.20837 0.6314,0.32053c1.3797,0.81511 1.8907,1.58338 1.6455,2.19586l-2.6087,14.7948c-0.1041,0.3307 -0.4176,0.6105 -1.8791,1.1326c-0.7142,0.2552 -1.309,0.4493 -1.9009,0.5231c-1.826,0.2275 -3.1579,-0.3424 -4.0917,-0.9697l-0.5934,3.3653c0.9338,0.6274 2.2657,1.1973 4.0917,0.9697c0.5919,-0.0738 1.1765,-0.2103 1.8908,-0.4654c1.2314,-0.44 1.7211,-0.6175 1.888,-1.1839l-1.0085,5.7194c-0.104,0.3307 -0.4176,0.6105 -1.879,1.1327c-0.7142,0.2551 -1.309,0.4493 -1.9009,0.523c-1.826,0.2276 -3.1579,-0.3423 -4.0917,-0.9697l-0.018,0.1019l-1.1497,6.5203l-5.42673,-10.1268l-0.33103,-0.1815l-8.3844,-4.5527l4.17114,-23.65568l1.18035,0.64899l14.65977,8.12219c0.877,0.5377 2.6028,0.9271 4.0789,0.5206c0.4516,-0.1243 1.4894,-0.4525 1.4894,-0.4525l-7.9041,-4.33456l-1.0219,-0.5549l0.0027,-0.00096l-5.6058,-3.05884l0.6046,-3.42898zm6.6671,17.49534c0.1031,1.1252 -0.4838,2.0989 -1.3108,2.1747c-0.827,0.0757 -1.581,-0.7751 -1.6841,-1.9003c-0.1031,-1.1253 0.4837,-2.099 1.3107,-2.1748c0.8271,-0.0757 1.5811,0.7751 1.6842,1.9004z" clip-rule="evenodd" fill-rule="evenodd"/>
 </g>
</svg>